<svg width="570" height="123" viewBox="0 0 570 123" fill="none" xmlns="http://www.w3.org/2000/svg">
<path d="M511.266 66.7178C511.296 67.378 511.348 68.0386 511.423 68.6992L511.507 69.3652L511.509 69.3848L511.511 69.4053C511.663 71.0005 512.152 72.3498 512.956 73.4834C513.716 74.5542 514.599 75.5525 515.606 76.4775L516.046 76.8691L516.055 76.8779L516.064 76.8857C517.352 78.0593 518.659 78.6969 519.992 78.8789C527.782 79.3333 536.093 79.4573 544.927 79.25C546.518 79.2081 548.048 79.1875 549.516 79.1875H552.891V62.875H552.953V33H568.203V101.312C568.203 104.108 567.678 106.742 566.622 109.206C565.638 111.502 564.304 113.52 562.618 115.249L561.952 115.915C560.223 117.6 558.206 118.935 555.909 119.919C553.445 120.975 550.811 121.5 548.016 121.5H498.082L498.888 120.021L506.138 106.709L506.422 106.188H544.891C546.015 106.188 547.049 105.982 548.001 105.579L548.014 105.574C549.015 105.166 549.853 104.599 550.541 103.874L550.559 103.855L550.577 103.838C551.302 103.15 551.869 102.312 552.277 101.311L552.282 101.298L552.424 100.937C552.733 100.085 552.891 99.1715 552.891 98.1875V94.7939L552.806 94.8115L552.711 94.8125C547.248 94.8542 541.805 94.8542 536.383 94.8125V94.8115C531.003 94.8115 525.601 94.7501 520.18 94.625H520.173C513.041 94.4114 507.289 92.3975 503.027 88.4873L503.023 88.4834C498.787 84.5557 496.488 78.9323 496.018 71.7529V71.7441L496.017 71.7363C495.808 67.4318 495.682 63.1269 495.641 58.8223C495.599 54.4761 495.64 50.0882 495.766 45.6592C495.807 43.7102 495.828 41.7821 495.828 39.875V33H511.203V42.1982C511.161 45.9864 511.141 49.6913 511.141 53.3125C511.182 56.8919 511.224 60.4505 511.266 63.9883V66.7178Z" fill="#252422" stroke="#252422" stroke-width="2"/>
<path d="M472.562 33C474.939 33 477.177 33.4411 479.267 34.3301C481.332 35.2092 483.125 36.4223 484.635 37.9707L484.923 38.2578C486.344 39.7102 487.467 41.4135 488.295 43.3584C489.184 45.4475 489.625 47.6858 489.625 50.0625V94.8125H427C424.29 94.8125 421.72 94.3093 419.302 93.2979L419.296 93.2949C416.935 92.2893 414.851 90.9086 413.052 89.1533L413.043 89.1445C411.282 87.384 409.899 85.3173 408.893 82.9541L408.89 82.9482C407.878 80.5295 407.375 77.9603 407.375 75.25C407.375 72.5004 407.878 69.9286 408.893 67.5459C409.899 65.1827 411.282 63.116 413.043 61.3555C414.843 59.5555 416.93 58.1504 419.296 57.1426C421.679 56.1277 424.25 55.625 427 55.625H475.688V51.25C475.688 50.0346 475.299 49.0876 474.543 48.332L474.384 48.1729C473.651 47.4764 472.752 47.125 471.625 47.125H414.625V33H472.562ZM427.688 69.0625C426.864 69.0625 426.081 69.2227 425.331 69.5439L425.32 69.5488L425.309 69.5537C424.593 69.8399 423.948 70.2507 423.371 70.792L423.37 70.7939C422.849 71.2805 422.424 71.8771 422.1 72.5977C421.781 73.3051 421.601 74.0706 421.562 74.9023V75.5225C421.677 77.2354 422.305 78.5589 423.422 79.5713C424.603 80.6044 426.007 81.125 427.688 81.125H475.625V69.0625H427.688Z" fill="#252422" stroke="#252422" stroke-width="2"/>
<path d="M340.75 3V33.6104C342.564 33.0773 344.482 32.8125 346.5 32.8125H381.438C384.193 32.8125 386.789 33.3377 389.213 34.3955H389.212C391.607 35.3989 393.706 36.7967 395.502 38.5879C397.353 40.3508 398.782 42.4634 399.791 44.9121C400.849 47.3362 401.375 49.9319 401.375 52.6875V94.625H387.188V58.5625C387.188 56.9432 386.88 55.4326 386.27 54.0215L386.265 54.0117L386.261 54.001C385.687 52.5855 384.869 51.37 383.806 50.3447L383.793 50.332C382.762 49.3012 381.536 48.4749 380.104 47.8555L380.094 47.8516C378.73 47.2454 377.244 46.9375 375.625 46.9375H352.375C350.756 46.9375 349.245 47.2453 347.834 47.8555C346.402 48.4749 345.175 49.3012 344.145 50.332C343.114 51.3629 342.287 52.5892 341.668 54.0215C341.058 55.4326 340.75 56.9432 340.75 58.5625V94.625H326.625V3H340.75Z" fill="#252422" stroke="#252422" stroke-width="2"/>
<path d="M320.625 33V47.125H272.062C269.738 47.125 267.564 47.5767 265.529 48.4766L265.521 48.4805C263.512 49.3474 261.742 50.5471 260.207 52.082C258.718 53.5711 257.515 55.3386 256.604 57.3955L256.605 57.3965C255.746 59.3886 255.312 61.5444 255.312 63.875C255.312 66.2056 255.746 68.385 256.608 70.4229C257.476 72.4746 258.655 74.2617 260.144 75.792C261.674 77.2813 263.462 78.4817 265.515 79.3916L265.898 79.5479C267.826 80.3059 269.878 80.6875 272.062 80.6875H312.942L313.233 81.1738L320.483 93.2988L321.388 94.8125H272.062C267.769 94.8125 263.72 94.0176 259.925 92.4219L259.912 92.416C256.177 90.7844 252.905 88.569 250.105 85.7695L250.1 85.7646L250.095 85.7588C247.342 82.9201 245.151 79.6314 243.521 75.9004L243.518 75.8916C241.921 72.137 241.125 68.128 241.125 63.875C241.125 59.5781 241.943 55.545 243.584 51.7871C245.216 48.0099 247.433 44.7353 250.236 41.9746C253.037 39.1759 256.309 36.9818 260.046 35.3926C263.8 33.7958 267.809 33 272.062 33H320.625Z" fill="#252422" stroke="#252422" stroke-width="2"/>
<path d="M178.125 33V34C178.125 35.3437 178.104 36.708 178.062 38.0928V53.3125C178.062 56.865 178.083 60.3969 178.124 63.9082C178.163 64.1293 178.188 64.3485 178.188 64.5625V65.1543L178.186 65.1836C178.146 65.8517 178.146 66.5427 178.186 67.2568C178.226 67.9873 178.287 68.696 178.368 69.3828C178.559 70.944 179.049 72.311 179.828 73.502L180.145 73.9512C180.905 74.9893 181.82 75.9585 182.893 76.8584L182.902 76.8672L183.164 77.0859C184.451 78.1363 185.678 78.7064 186.846 78.8779C194.638 79.2912 202.972 79.4158 211.849 79.25C213.44 79.2081 214.97 79.1875 216.438 79.1875H219.875V33H235.125V94.75H226.812C224.402 94.75 222.012 94.7709 219.643 94.8125H219.633C214.128 94.8542 208.685 94.8542 203.305 94.8125V94.8115C197.925 94.8115 192.523 94.7501 187.102 94.625H187.095C179.963 94.4114 174.211 92.3975 169.949 88.4873C165.669 84.5602 163.347 78.9352 162.877 71.7529V71.7441L162.876 71.7363C162.667 67.4318 162.542 63.1269 162.5 58.8223V58.8125C162.5 54.4729 162.542 50.0917 162.625 45.6689V45.666C162.667 43.7147 162.688 41.7844 162.688 39.875V39.8535C162.729 37.9444 162.75 35.9931 162.75 34V33H178.125Z" fill="#252422" stroke="#252422" stroke-width="2"/>
<path d="M133.75 33C136.916 33 139.883 33.5863 142.639 34.7666L143.156 34.9922C145.721 36.1462 147.97 37.7046 149.895 39.668L150.274 40.0566C152.146 42.0202 153.631 44.2895 154.731 46.8564C155.912 49.6121 156.5 52.5591 156.5 55.6875V72.125C156.5 75.2982 155.891 78.2709 154.664 81.0312L154.663 81.0303C153.489 83.7648 151.857 86.1589 149.769 88.2061L149.77 88.207C147.718 90.2581 145.319 91.8704 142.581 93.0439C139.825 94.2249 136.878 94.8125 133.75 94.8125H104.438C101.269 94.8125 98.3013 94.2256 95.5439 93.0439C92.8057 91.8704 90.4066 90.2581 88.3555 88.207L88.3477 88.1992C86.3012 86.1091 84.6912 83.6922 83.5186 80.9561C82.3376 78.2004 81.75 75.2534 81.75 72.125V55.6875C81.75 52.5194 82.3369 49.5513 83.5186 46.7939C84.692 44.0141 86.306 41.6111 88.3633 39.5977C90.4534 37.5512 92.8703 35.9412 95.6064 34.7686C98.3621 33.5876 101.309 33 104.438 33H133.75ZM107.625 47.125C106.006 47.125 104.471 47.4329 103.013 48.0469C101.589 48.6641 100.343 49.5085 99.2695 50.582C98.2432 51.6084 97.4174 52.8517 96.7969 54.3252L96.793 54.334C96.1828 55.7451 95.875 57.2557 95.875 58.875V68.9375C95.875 70.5536 96.1814 72.0854 96.793 73.541L97.0352 74.0703C97.6203 75.2786 98.3638 76.349 99.2646 77.2871C100.338 78.3201 101.584 79.1467 103.013 79.7656C104.471 80.3796 106.006 80.6875 107.625 80.6875H130.562C132.182 80.6875 133.692 80.3797 135.104 79.7695L135.112 79.7656C136.586 79.1451 137.829 78.3193 138.855 77.293C139.931 76.2172 140.777 74.9689 141.395 73.541C142.006 72.0854 142.312 70.5536 142.312 68.9375V58.875C142.312 57.2557 142.005 55.7451 141.395 54.334L141.391 54.3252C140.773 52.8593 139.931 51.62 138.868 50.5947L138.843 50.5693C137.817 49.5061 136.578 48.6642 135.112 48.0469L135.104 48.043C133.692 47.4328 132.182 47.125 130.562 47.125H107.625Z" fill="#252422" stroke="#252422" stroke-width="2"/>
<path d="M44.8125 33C49.1464 33 53.1973 33.8156 56.9541 35.4551L57.6494 35.7598C61.0982 37.3206 64.1385 39.4133 66.7637 42.0371C69.5695 44.7998 71.7671 48.0774 73.3574 51.8584C74.9542 55.613 75.75 59.622 75.75 63.875C75.75 68.2122 74.9332 72.2855 73.293 76.084C71.7028 79.8213 69.5073 83.0943 66.707 85.8945L66.7012 85.9004C63.8983 88.66 60.6031 90.8334 56.8252 92.4219L56.8242 92.4209C53.0708 94.0165 49.064 94.8125 44.8125 94.8125H15.1875V121.5H1V33H44.8125ZM15.1875 80.6875H44.8125C47.1431 80.6875 49.3225 80.2538 51.3604 79.3916C53.4145 78.481 55.1804 77.2805 56.668 75.793C58.1997 74.2612 59.3989 72.4738 60.2666 70.4229L60.2695 70.415L60.2734 70.4082C61.1733 68.3738 61.625 66.1994 61.625 63.875C61.625 61.5506 61.1732 59.3999 60.2764 57.4111L60.2666 57.3896C59.454 55.4689 58.3512 53.7995 56.959 52.373L56.377 51.791C54.9505 50.3988 53.2811 49.296 51.3604 48.4834L51.3525 48.4805L51.3457 48.4766C49.3113 47.5767 47.1369 47.125 44.8125 47.125H15.1875V80.6875Z" fill="#252422" stroke="#252422" stroke-width="2"/>
<g clip-path="url(#clip0_30229_164)">
<path d="M240.379 32L238.351 28L224.151 21C223.957 20.9123 223.792 20.7714 223.677 20.5941C223.561 20.4168 223.5 20.2106 223.5 20C223.5 19.7894 223.561 19.5832 223.677 19.4059C223.792 19.2286 223.957 19.0877 224.151 19L260.664 6L254.749 22.152" stroke="#EB5E28" stroke-width="5" stroke-linecap="round" stroke-linejoin="round"/>
<path d="M248.494 36C248.494 37.5913 249.135 39.1174 250.277 40.2426C251.418 41.3679 252.966 42 254.58 42C256.194 42 257.742 41.3679 258.883 40.2426C260.024 39.1174 260.665 37.5913 260.665 36C260.665 34.4087 260.024 32.8826 258.883 31.7574C257.742 30.6321 256.194 30 254.58 30C252.966 30 251.418 30.6321 250.277 31.7574C249.135 32.8826 248.494 34.4087 248.494 36Z" stroke="#EB5E28" stroke-width="5" stroke-linecap="round" stroke-linejoin="round"/>
<path d="M259.043 40.3984L262.694 43.9984" stroke="#EB5E28" stroke-width="5" stroke-linecap="round" stroke-linejoin="round"/>
</g>
<defs>
<clipPath id="clip0_30229_164">
<rect width="48.6845" height="48" fill="white" transform="translate(218.066)"/>
</clipPath>
</defs>
</svg>
